<?xml version="1.0" encoding="UTF-8" standalone="no"?>
<svg xmlns="http://www.w3.org/2000/svg" enable-background="new 0 0 691 196" xml:space="preserve" viewBox="0 0 691 196" version="1.1" y="0px" x="0px"><path fill="#144A94" d="m11.851 19.383c0-2.99 2.425-5.404 5.406-5.404h159.13c2.985 0 5.399 2.414 5.399 5.404v20.96c-51.35 4.012-132.82 14.595-169.94 42.127v-63.087"/><path fill="#008558" d="m61.915 184.34c-0.019 0.309-0.062 0.584-0.09 0.879h-44.568c-2.981 0-5.406-2.427-5.406-5.405v-38.264c2.962 1.988 6.368 4.055 10.285 6.186 23.175 12.59 40.661 22.99 39.779 36.59"/><path fill="#008558" d="m113.63 67.601c17.309-11.308 41.472-19.75 68.162-26.07v61.587c-22.967-7.848-44.305-11.121-44.305-11.121-50.616-7.001-23.85-24.398-23.85-24.398"/><g fill="#144A94"><path d="m237.97 96.726c0-11.675 0.65-23.186 1.138-34.86 0.484-12.811 2.435-13.786 17.032-13.786 31.46 0 53.829 21.895 53.829 55.462 0 35.834-21.892 49.62-55.451 49.62-13.625 0-16.548-2.599-16.548-9.573v-46.864m-12.97 48.324c0 5.023-2.105 9.725-7.622 9.725v2.924c7.622 0 15.243-0.651 22.868-0.651 7.617 0 15.236 0.651 22.863 0.651 34.211 0 62.269-18.325 62.269-53.028 0-36.811-27.57-60.159-62.269-60.159-7.627 0-15.246 0.653-22.863 0.653-7.625 0-15.246-0.653-23.192-0.653v2.921c5.841 0 7.946 4.703 7.946 9.728v87.89z"/><path d="m378.72 144.24c-4.057 3.728-9.893 6.972-14.916 6.972-7.946 0-11.028-5.511-11.028-12.644 0-9.892 8.594-15.57 17.994-15.57h7.95v21.24m-32.58-39.4h2.437c1.452-6.812 8.915-7.298 14.594-7.298 12.644 0 15.562 3.244 15.562 12.158v8.76c-6.969 0-13.619 0-19.785 2.105-9.071 3.083-17.506 8.595-17.506 19.303 0 7.773 4.698 19.452 16.697 19.452 7.782 0 14.758-4.703 20.926-9.399 1.615 4.539 4.376 8.101 6.644 10.209l14.1-9.239-1.124-2.597c-1.629 0.812-2.924 1.298-4.703 1.298-2.598 0-3.892-2.597-3.892-6.482v-29.67c0-15.73-3.734-24-21.249-24-7.779 0-15.725 0.324-22.7 2.598v12.812z"/><rect height="8.922" width="29.187" y="119.91" x="416.02"/><path d="m475.04 104.51c0-54.489-0.646-55.786-9.399-57.08v-2.921c5.831 0 10.7 0.653 15.565 0.653 5.513 0 10.372-0.653 14.436-0.653v2.921c-5.518 0-7.628 4.703-7.628 9.728 0 7.781-0.967 32.431-0.967 47.352 0 15.565 0.967 34.372 0.967 47.02h32.11c12.319 0 17.348-4.375 21.562-13.295l2.599 0.811-4.059 19.459c-5.509-1.459-24.646-1.459-36.641-1.459-12.164 0-24.166 0.651-36.16 0.651v-2.924c5.51 0 7.615-4.701 7.615-9.725v-40.55"/><path d="m565.04 110.51c2.588-9.568 7.301-16.539 18.155-16.539 6.974 0 14.111 5.188 14.111 12.48 0 2.922-0.65 4.059-2.597 4.059h-29.67m43.94 34.71l-1.125-1.299c-6.82 6.809-12.332 7.295-16.223 7.295-15.891 0-28.209-10.053-28.209-26.43 0-3.081 0.155-6.324 0.324-9.73h42.482c2.594 0 4.047-2.436 4.047-4.702 0-13.462-15.4-20.919-27.397-20.919-19.944 0-32.441 15.893-32.441 34.703 0 19.945 16.223 35.185 36.163 35.185 5.846 0 12.979-1.459 13.625-2.269l8.76-11.83z"/><path d="m637.03 110.51c2.598-9.568 7.301-16.539 18.168-16.539 6.976 0 14.104 5.188 14.104 12.48 0 2.922-0.65 4.059-2.597 4.059h-29.67m43.95 34.71l-1.14-1.299c-6.808 6.809-12.318 7.295-16.213 7.295-15.888 0-28.209-10.053-28.209-26.43 0-3.081 0.152-6.324 0.314-9.73h42.485c2.599 0 4.057-2.436 4.057-4.702 0-13.462-15.398-20.919-27.407-20.919-19.943 0-32.425 15.893-32.425 34.703 0 19.945 16.213 35.185 36.156 35.185 5.842 0 12.975-1.459 13.626-2.269l8.75-11.83z"/></g></svg>
