<?xml version="1.0" encoding="UTF-8" standalone="no"?>
<svg xmlns="http://www.w3.org/2000/svg" height="10.601mm" width="13.151mm" version="1.1" viewBox="0 0 13.150585 10.600796">
<g transform="translate(-39.538 -132.19)">
<g transform="matrix(.26458 0 0 .26458 37.14 128.87)" fill="#fff">
<polygon points="34.95 12.577 32.878 12.577 27.96 17.048 16.5 27.467 15.835 28.07 9.062 34.227 15.276 34.227 15.835 33.718 16.5 33.114 33.914 17.283 51.799 33.543 51.993 33.718 52.551 34.227 58.765 34.227 52.513 28.544 53.525 29.05 53.525 18.225 45.995 18.225 45.995 22.618 39.868 17.048"/>
<polygon points="38.385 52.643 51.563 52.643 51.563 35.955 33.679 19.696 16.264 35.527 16.264 52.643 29.443 52.643 29.443 38.993 38.385 38.993"/>
</g>
</g>
</svg>
