<?xml version="1.0" standalone="no"?>
<!DOCTYPE svg PUBLIC "-//W3C//DTD SVG 20010904//EN"
 "http://www.w3.org/TR/2001/REC-SVG-20010904/DTD/svg10.dtd">
<svg version="1.0" xmlns="http://www.w3.org/2000/svg"
 width="644.000000pt" height="644.000000pt" viewBox="0 0 644.000000 644.000000"
 preserveAspectRatio="xMidYMid meet">
<metadata>
Created by potrace 1.11, written by Peter Selinger 2001-2013
</metadata>
<g transform="translate(0.000000,644.000000) scale(0.100000,-0.100000)"
fill="#000000" stroke="none">
<path d="M141 6415 c-49 -28 -62 -42 -91 -97 -19 -36 -20 -64 -20 -1242 0
-663 3 -1206 7 -1206 3 0 14 6 22 13 22 19 180 127 186 127 2 0 23 13 47 29
103 68 456 251 485 251 6 0 13 5 15 11 2 5 10 11 18 13 17 3 48 16 110 44 80
37 245 102 258 102 6 0 12 5 12 12 0 6 2 9 6 6 3 -3 28 3 57 14 64 25 237 87
257 92 8 3 49 16 90 31 41 14 80 27 85 29 6 1 30 8 55 15 25 7 45 12 45 11 0
-1 18 5 40 14 22 9 114 36 205 61 191 54 200 56 220 60 8 1 22 5 30 8 38 14
669 162 780 182 14 3 84 16 155 30 72 15 141 28 155 31 14 2 59 11 100 19 41
7 89 16 105 19 61 10 91 16 115 21 14 3 45 8 70 11 25 3 48 8 52 10 4 3 29 7
55 10 26 2 55 6 63 9 8 2 38 7 65 11 28 3 59 8 70 10 11 3 38 7 60 9 22 3 51
7 65 10 30 6 59 11 120 20 75 11 93 14 140 20 25 3 56 8 70 10 14 2 48 6 75 9
28 4 61 9 75 11 14 3 45 7 70 10 53 6 104 12 157 19 68 10 127 16 178 21 28 2
50 5 50 5 0 2 40 7 115 15 30 3 75 8 100 11 25 3 63 7 85 9 40 4 98 10 184 21
24 3 69 7 100 9 31 3 74 7 96 9 22 2 69 7 105 10 36 4 85 9 110 12 25 2 74 6
110 8 62 4 202 16 245 22 11 1 26 3 33 3 10 1 12 88 12 418 l-1 417 -26 47
c-14 27 -44 60 -67 76 l-41 28 -3050 2 -3050 3 -44 -25z"/>
<path d="M6392 5399 c-13 -5 -33 -11 -45 -13 -30 -7 -317 -80 -392 -101 -33
-9 -67 -18 -75 -20 -8 -2 -46 -13 -85 -25 -38 -11 -83 -22 -99 -25 -15 -2 -33
-8 -40 -14 -6 -5 -27 -12 -46 -17 -42 -9 -41 -9 -60 -16 -8 -4 -89 -30 -180
-59 -171 -54 -253 -83 -430 -152 -58 -22 -111 -40 -117 -40 -7 0 -13 -4 -13
-9 0 -4 -5 -8 -11 -8 -10 0 -153 -60 -289 -121 -90 -41 -341 -168 -390 -198
-19 -11 -42 -24 -50 -28 -15 -7 -32 -17 -155 -93 -123 -77 -200 -147 -257
-234 -15 -22 -32 -47 -38 -53 -6 -7 -8 -13 -5 -13 3 0 1 -9 -5 -20 -19 -35
-23 -110 -9 -154 21 -69 77 -136 159 -193 70 -47 253 -130 330 -149 8 -2 55
-14 103 -28 49 -14 103 -28 120 -31 18 -4 50 -10 72 -15 97 -20 274 -50 325
-56 14 -1 25 -3 25 -4 0 -2 33 -8 80 -15 44 -6 65 -10 110 -19 45 -9 77 -15
105 -20 14 -3 91 -19 173 -36 81 -18 155 -33 165 -35 9 -2 17 -4 17 -5 0 -1
14 -4 30 -6 17 -3 37 -7 45 -11 8 -3 26 -8 39 -10 14 -2 50 -11 80 -19 31 -8
65 -17 76 -19 47 -10 487 -136 560 -160 44 -15 86 -28 95 -30 8 -2 35 -11 59
-19 24 -9 46 -15 48 -13 2 2 2 524 1 1159 l-3 1155 -23 -8z"/>
<path d="M30 897 c0 -409 3 -747 7 -751 5 -4 8 -11 8 -15 0 -20 54 -83 90
-103 l40 -23 859 -3 c516 -1 863 1 869 7 16 16 9 173 -9 203 -3 5 -8 20 -10
35 -6 30 -61 148 -78 166 -6 7 -24 32 -41 56 -29 43 -169 190 -232 243 -65 55
-231 176 -328 239 -127 83 -152 98 -282 174 -37 22 -76 44 -85 50 -9 5 -29 17
-45 26 -15 8 -86 48 -158 88 -71 41 -139 77 -150 82 -11 5 -27 13 -35 19 -27
17 -172 100 -175 100 -2 0 -53 31 -112 68 -59 37 -114 71 -120 76 -10 6 -13
-144 -13 -737z"/>
</g>
</svg>
